HIERARCHY
ROOT Hips
{
	OFFSET 0.000000 0.000000 0.000000 
	CHANNELS 6 Xposition Yposition Zposition Yrotation Zrotation Xrotation 
	JOINT Lumbar
	{
		OFFSET 0.000000 0.000000 0.000000 
		CHANNELS 3 Zrotation Xrotation Yrotation
		JOINT Neck
		{
			OFFSET 0.000000 0.445665 0.000000 
			CHANNELS 3 Zrotation Xrotation Yrotation
			End Site
			{
				OFFSET 0.000000 0.227535 0.000000 
			}
		}
		JOINT RightShoulder
		{
			OFFSET 0.019635 0.377685 0.194865 
			CHANNELS 3 Zrotation Xrotation Yrotation
			JOINT RightElbow
			{
				OFFSET 0.000000 -0.243375 0.000000 
				CHANNELS 2 Zrotation Yrotation
				JOINT RightWrist
				{
					OFFSET 0.000000 -0.264825 0.000000 
					CHANNELS 2 Zrotation Xrotation
					End Site
					{
						OFFSET 0.006600 -0.176220 0.000990 
					}
				}
			}
		}
		JOINT LeftShoulder
		{
			OFFSET 0.019635 0.377685 -0.194865 
			CHANNELS 3 Zrotation Xrotation Yrotation
			JOINT LeftElbow
			{
				OFFSET 0.000000 -0.243375 0.000000 
				CHANNELS 2 Zrotation Yrotation
				JOINT LeftWrist
				{
					OFFSET 0.000000 -0.264825 0.000000 
					CHANNELS 2 Zrotation Xrotation
					End Site
					{
						OFFSET 0.006600 -0.176220 -0.000990 
					}
				}
			}
		}
	}
	JOINT RightHip
	{
		OFFSET 0.052140 -0.069960 0.075570 
		CHANNELS 3 Zrotation Xrotation Yrotation
		JOINT RightKnee
		{
			OFFSET 0.000000 -0.402270 0.000000 
			CHANNELS 1 Zrotation
			JOINT RightAnkle
			{
				OFFSET 0.000000 -0.404085 0.000000 
				CHANNELS 3 Zrotation Xrotation Yrotation
				End Site
				{
					OFFSET 0.204105 -0.089430 0.008415 
				}
			}
		}
	}
	JOINT LeftHip
	{
		OFFSET 0.052140 -0.069960 -0.075570 
		CHANNELS 3 Zrotation Xrotation Yrotation
		JOINT LeftKnee
		{
			OFFSET 0.000000 -0.402270 0.000000 
			CHANNELS 1 Zrotation
			JOINT LeftAnkle
			{
				OFFSET 0.000000 -0.404085 0.000000 
				CHANNELS 3 Zrotation Xrotation Yrotation
				End Site
				{
					OFFSET 0.204105 -0.089430 -0.008415 
				}
			}
		}
	}
}
MOTION
Frames: 11
Frame Time: 0.02
-0.44766 -0.00593 -0.34418 186.43026 -20.07871 3.22171 36.43165 5.53551 -1.34502 -19.35215 -3.2629 -0.83071 -15.38613 -17.87927 -2.96712 33.86458 113.30788 8.76795 5.49854 86.87689 59.36593 -64.03862 15.11841 -140.68736 29.53797 -6.1907 14.62202 4.29328 -8.67256 -8.33363 -9.48717 -5.30648 -3.63887 24.66119 8.00566 -0.40759 -20.22561 -9.85055 2.94265 2.30009
-0.44777 -0.00633 -0.3465 186.49641 -20.22038 3.13407 36.59098 5.41805 -1.0704 -19.43966 -2.72444 -0.83071 -15.05823 -17.42414 -3.00823 33.90098 113.00695 8.57321 5.54172 82.85638 61.13821 -62.86843 18.79606 -138.93675 30.25904 -5.63099 14.81788 4.53384 -8.71372 -8.37834 -9.46857 -5.31223 -3.64063 24.76171 8.24028 -0.4771 -20.05141 -9.84093 2.93059 2.29339
-0.44802 -0.00668 -0.34878 186.51012 -20.41504 3.05908 36.80759 5.28365 -0.83891 -19.44742 -2.26911 -0.83071 -14.89674 -16.91655 -2.99184 34.07209 111.57451 8.20307 5.3645 78.28402 62.91367 -61.33505 23.14403 -136.79521 31.01466 -5.00379 15.08126 4.75524 -8.66945 -8.45839 -9.4514 -5.31869 -3.64335 24.86866 8.48561 -0.68244 -19.83568 -9.82946 2.90511 2.27983
-0.4482 -0.00705 -0.35107 186.54742 -20.57608 2.97815 36.98721 5.15799 -0.59684 -19.48485 -1.78812 -0.83071 -14.66774 -16.42897 -2.99874 34.18088 110.68202 7.91345 5.29537 73.9509 64.6455 -59.93866 27.20352 -134.76868 31.68199 -4.40848 15.29691 4.98514 -8.66863 -8.50913 -9.43402 -5.32433 -3.64535 24.96338 8.72357 -0.82597 -19.63997 -9.81977 2.88713 2.27014
-0.44841 -0.00743 -0.35342 186.58432 -20.7758 2.89668 37.21168 5.02776 -0.31993 -19.54821 -1.25514 -0.83071 -14.4036 -15.95261 -3.02412 34.29587 109.71802 7.62682 5.19986 69.64047 66.56491 -58.64672 31.2087 -132.99294 32.65642 -3.80375 15.5808 5.21679 -8.65515 -8.61292 -9.41412 -5.33152 -3.64814 25.09242 8.97531 -0.97431 -19.43531 -9.80551 2.86219 2.25659
-0.44859 -0.00777 -0.35562 186.60883 -20.90961 2.81991 37.3581 4.90293 -0.12486 -19.53932 -0.85074 -0.83071 -14.25173 -15.44348 -2.99066 34.42716 108.61548 7.28856 5.10383 65.17439 68.08648 -57.0678 35.47864 -130.61206 32.99627 -3.20572 15.74257 5.4396 -8.64523 -8.61763 -9.39974 -5.33576 -3.6496 25.15515 9.19978 -1.14263 -19.24188 -9.80058 2.84899 2.24973
-0.44867 -0.00798 -0.35746 186.62783 -20.83039 2.7525 37.2597 4.79921 -0.14231 -19.35018 -0.77921 -0.83071 -14.37962 -14.84233 -2.86194 34.59834 107.46158 6.86621 5.06515 60.25843 68.55893 -54.64319 40.34124 -126.59837 31.61399 -2.62444 15.51864 5.64633 -8.66466 -8.31619 -9.40432 -5.3328 -3.64806 25.01139 9.34467 -1.33958 -19.07876 -9.82163 2.87115 2.26274
-0.44871 -0.00814 -0.35915 186.63339 -20.68627 2.68971 37.08349 4.70126 -0.24095 -19.09123 -0.83515 -0.83071 -14.61343 -14.21318 -2.66695 34.77674 106.192 6.39407 5.03169 55.23636 68.61968 -51.96853 45.43921 -122.0028 29.58764 -2.05581 15.17531 5.84395 -8.68997 -7.91829 -9.41379 -5.32671 -3.64503 24.8049 9.46154 -1.55003 -18.93075 -9.85226 2.90577 2.28285
-0.44876 -0.00832 -0.3609 186.63538 -20.58385 2.62532 36.95317 4.59929 -0.30346 -18.86483 -0.83334 -0.83071 -14.79165 -13.60687 -2.46572 34.93303 104.93599 5.93418 4.99178 50.36506 68.83683 -49.50226 50.413 -117.71025 27.8279 -1.49398 14.90802 6.04343 -8.7124 -7.58045 -9.41848 -5.32145 -3.64222 24.64226 9.5919 -1.74956 -18.78354 -9.87872 2.93509 2.29999
-0.44887 -0.00851 -0.36267 186.67726 -20.43224 2.55913 36.78108 4.50231 -0.36311 -18.63275 -0.83153 -0.83071 -15.00554 -12.95616 -2.41131 35.17129 103.80833 5.51324 4.96164 45.03766 69.18864 -46.62509 55.48941 -113.23383 26.1688 -0.87758 14.55212 6.25236 -8.73252 -7.17573 -9.43394 -5.31881 -3.64149 24.41623 9.71969 -1.97468 -18.60289 -9.9043 2.9625 2.31585
-0.44883 -0.00866 -0.36437 186.63243 -20.36635 2.49777 36.67593 4.39689 -0.4489 -18.39618 -0.86159 -0.83071 -15.17011 -12.39169 -2.04201 35.24156 102.39726 5.00018 4.91509 40.64691 69.15606 -44.54681 60.39124 -109.01633 24.16009 -0.3777 14.35032 6.43909 -8.76037 -6.88645 -9.4282 -5.3098 -3.63591 24.30575 9.84581 -2.14721 -18.49551 -9.93405 2.99691 2.33609
